<?xml version="1.0" encoding="UTF-8" standalone="no"?>
<!-- Created with Inkscape (http://www.inkscape.org/) -->

<svg
   xmlns:dc="http://purl.org/dc/elements/1.1/"
   xmlns:cc="http://creativecommons.org/ns#"
   xmlns:rdf="http://www.w3.org/1999/02/22-rdf-syntax-ns#"
   xmlns:svg="http://www.w3.org/2000/svg"
   xmlns="http://www.w3.org/2000/svg"
   xmlns:sodipodi="http://sodipodi.sourceforge.net/DTD/sodipodi-0.dtd"
   xmlns:inkscape="http://www.inkscape.org/namespaces/inkscape"
   width="744.09448819"
   height="1052.3622047"
   id="svg2"
   version="1.1"
   inkscape:version="0.48.2 r9819"
   sodipodi:docname="box.svg"
   inkscape:export-filename="/home/substack/projects/boxcontainer/ui/static/images/box.png"
   inkscape:export-xdpi="53.790001"
   inkscape:export-ydpi="53.790001">
  <defs
     id="defs4" />
  <sodipodi:namedview
     id="base"
     pagecolor="#ffffff"
     bordercolor="#666666"
     borderopacity="1.0"
     inkscape:pageopacity="0.0"
     inkscape:pageshadow="2"
     inkscape:zoom="0.61820106"
     inkscape:cx="564.46201"
     inkscape:cy="699.36536"
     inkscape:document-units="px"
     inkscape:current-layer="layer1"
     showgrid="false"
     inkscape:window-width="1364"
     inkscape:window-height="766"
     inkscape:window-x="0"
     inkscape:window-y="0"
     inkscape:window-maximized="0" />
  <metadata
     id="metadata7">
    <rdf:RDF>
      <cc:Work
         rdf:about="">
        <dc:format>image/svg+xml</dc:format>
        <dc:type
           rdf:resource="http://purl.org/dc/dcmitype/StillImage" />
        <dc:title></dc:title>
      </cc:Work>
    </rdf:RDF>
  </metadata>
  <g
     inkscape:label="Layer 1"
     inkscape:groupmode="layer"
     id="layer1">
    <rect
       style="color:#000000;fill:#1e0536;fill-opacity:1;fill-rule:nonzero;stroke:#ffffff;stroke-width:4;stroke-linecap:butt;stroke-linejoin:round;stroke-miterlimit:4;stroke-opacity:0;stroke-dasharray:none;stroke-dashoffset:0;marker:none;visibility:visible;display:inline;overflow:visible;enable-background:accumulate"
       id="rect3192"
       width="340.4133"
       height="207.00809"
       x="167.90656"
       y="84.024353"
       ry="5.3221302"
       inkscape:export-xdpi="53.790001"
       inkscape:export-ydpi="53.790001"
       inkscape:export-filename="/home/substack/projects/boxcontainer/ui/static/images/box.png" />
    <path
       d="m 177.5625,68.53125 a 18.271719,18.271719 0 0 0 -15.8125,9.125 l -8.5625,14.75 -17,0 A 18.271719,18.271719 0 0 0 120.375,101.5 l -17.90625,30.84375 a 18.271719,18.271719 0 0 0 -0.0625,18.25 l 8.65625,15.15625 -8.625,15.15625 a 18.271719,18.271719 0 0 0 0.0937,18.21875 l 17.9375,30.8125 a 18.271719,18.271719 0 0 0 15.8125,9.09375 l 17,-0.0312 8.46875,14.59375 a 18.271719,18.271719 0 0 0 15.8125,9.125 l 35.65625,0 a 18.271719,18.271719 0 0 0 15.8125,-9.09375 l 8.53125,-14.6875 17.03125,0 a 18.271719,18.271719 0 0 0 15.78125,-9.09375 l 17.90625,-30.8125 a 18.271719,18.271719 0 0 0 0.0937,-18.25 l -8.65625,-15.15625 8.625,-15.15625 A 18.271719,18.271719 0 0 0 288.25,132.25 l -17.9375,-30.8125 a 18.271719,18.271719 0 0 0 -15.78125,-9.09375 l -16.96875,0 -8.53125,-14.6875 a 18.271719,18.271719 0 0 0 -15.8125,-9.125 l -35.65625,0 z"
       id="path4109"
       style="fill:#ffffff;fill-opacity:0.14009663"
       inkscape:original="M 177.5625 86.8125 L 163.71875 110.6875 L 136.1875 110.6875 L 118.28125 141.53125 L 132.09375 165.71875 L 118.3125 189.9375 L 136.25 220.75 L 163.78125 220.6875 L 177.5625 244.4375 L 213.21875 244.4375 L 227.03125 220.65625 L 254.59375 220.65625 L 272.5 189.84375 L 258.6875 165.65625 L 272.46875 141.4375 L 254.53125 110.625 L 227.0625 110.625 L 227.03125 110.625 L 213.21875 86.8125 L 177.5625 86.8125 z "
       inkscape:radius="18.269892"
       sodipodi:type="inkscape:offset"
       transform="translate(138.00539,20.700809)"
       inkscape:export-filename="/home/substack/projects/boxcontainer/ui/static/images/box.png"
       inkscape:export-xdpi="53.790001"
       inkscape:export-ydpi="53.790001" />
    <g
       id="g3159"
       transform="matrix(0.30725648,0,0,0.30725648,249.3608,101.88838)"
       inkscape:export-filename="/home/substack/projects/boxcontainer/ui/static/images/box.png"
       inkscape:export-xdpi="53.790001"
       inkscape:export-ydpi="53.790001">
      <g
         id="background">
        <polygon
           id="polygon3093"
           points="170.563,453.96 215.493,531.293 331.534,531.293 376.54,453.83 466.217,453.9 524.475,353.595 479.493,274.868 524.373,196.083 465.987,95.801 376.463,95.831 331.534,18.293 215.493,18.293 170.487,95.963 80.81,95.996 22.552,196.379 67.533,275.119 22.653,353.909 81.04,454.196 "
           style="fill:#ffffff" />
      </g>
      <g
         id="g3095"
         style="opacity:0.7">
        <polygon
           id="polygon3097"
           points="467.147,296.541 351.533,296.714 293.147,196.43 350.374,95.974 465.987,95.801 524.373,196.083 "
           style="fill:#f48e00" />
      </g>
      <g
         id="g3099"
         style="opacity:0.7">
        <polygon
           id="polygon3101"
           points="79.907,296.789 22.552,196.405 80.81,96.047 196.423,96.072 253.778,196.456 195.521,296.813 "
           style="fill:#6b34a1" />
      </g>
      <g
         id="g3103"
         style="opacity:0.7">
        <polygon
           id="polygon3105"
           points="196.653,454.026 81.04,454.199 22.653,353.916 79.879,253.459 195.493,253.287 253.879,353.569 "
           style="fill:#338ee3" />
      </g>
      <g
         id="g3107"
         style="opacity:0.7">
        <polygon
           id="polygon3109"
           points="157.471,431.293 215.493,331.293 331.534,331.293 389.556,431.293 331.534,531.293 215.493,531.293 "
           style="fill:#9bcf00" />
      </g>
      <g
         id="g3111"
         style="opacity:0.7">
        <polygon
           id="polygon3113"
           points="350.604,453.928 293.248,353.544 351.506,253.186 467.119,253.211 524.475,353.595 466.217,453.952 "
           style="fill:#feef2f" />
      </g>
      <g
         id="g3115"
         style="opacity:0.7">
        <polygon
           id="polygon3117"
           points="157.471,118.293 215.493,18.293 331.534,18.293 389.556,118.293 331.534,218.293 215.493,218.293 "
           style="fill:#e52558" />
      </g>
      <g
         id="g3119"
         style="opacity:0.35">
        <polygon
           id="polygon3121"
           points="157.471,275.293 215.493,175.293 331.534,175.293 389.556,275.293 331.534,375.293 215.493,375.293 " />
      </g>
      <g
         id="g3123" />
      <g
         id="g3125" />
      <g
         id="g3127" />
      <g
         id="g3129" />
      <g
         id="g3131" />
      <g
         id="g3133" />
      <g
         id="g3135" />
      <g
         id="g3137" />
      <g
         id="g3139" />
      <g
         id="g3141" />
      <g
         id="g3143" />
      <g
         id="g3145" />
      <g
         id="g3147" />
      <g
         id="g3149" />
      <g
         id="g3151" />
    </g>
  </g>
</svg>
