<?xml version="1.0" encoding="UTF-8" standalone="no"?>
<!-- Created with Inkscape (http://www.inkscape.org/) -->

<svg
   xmlns:dc="http://purl.org/dc/elements/1.1/"
   xmlns:cc="http://creativecommons.org/ns#"
   xmlns:rdf="http://www.w3.org/1999/02/22-rdf-syntax-ns#"
   xmlns:svg="http://www.w3.org/2000/svg"
   xmlns="http://www.w3.org/2000/svg"
   xmlns:sodipodi="http://sodipodi.sourceforge.net/DTD/sodipodi-0.dtd"
   xmlns:inkscape="http://www.inkscape.org/namespaces/inkscape"
   width="744.09448819"
   height="1052.3622047"
   id="svg2"
   version="1.1"
   inkscape:version="0.48.2 r9819"
   sodipodi:docname="fork.svg">
  <defs
     id="defs4" />
  <sodipodi:namedview
     id="base"
     pagecolor="#ffffff"
     bordercolor="#666666"
     borderopacity="1.0"
     inkscape:pageopacity="0.0"
     inkscape:pageshadow="2"
     inkscape:zoom="0.61485144"
     inkscape:cx="398.0009"
     inkscape:cy="805.21114"
     inkscape:document-units="px"
     inkscape:current-layer="layer1"
     showgrid="false"
     inkscape:window-width="1364"
     inkscape:window-height="766"
     inkscape:window-x="0"
     inkscape:window-y="0"
     inkscape:window-maximized="0" />
  <metadata
     id="metadata7">
    <rdf:RDF>
      <cc:Work
         rdf:about="">
        <dc:format>image/svg+xml</dc:format>
        <dc:type
           rdf:resource="http://purl.org/dc/dcmitype/StillImage" />
        <dc:title></dc:title>
      </cc:Work>
    </rdf:RDF>
  </metadata>
  <g
     inkscape:label="Layer 1"
     inkscape:groupmode="layer"
     id="layer1">
    <path
       sodipodi:type="arc"
       style="color:#000000;fill:#1e0536;fill-opacity:1;fill-rule:nonzero;stroke:#ffffff;stroke-width:4;stroke-linecap:butt;stroke-linejoin:round;stroke-miterlimit:4;stroke-opacity:0;stroke-dasharray:none;stroke-dashoffset:0;marker:none;visibility:visible;display:inline;overflow:visible;enable-background:accumulate"
       id="path3010"
       sodipodi:cx="349.03864"
       sodipodi:cy="165.67755"
       sodipodi:rx="102.92902"
       sodipodi:ry="104.65409"
       d="m 451.96766,165.67755 a 102.92902,104.65409 0 1 1 -205.85805,0 102.92902,104.65409 0 1 1 205.85805,0 z"
       transform="translate(178.0918,-0.8132049)" />
    <path
       sodipodi:type="arc"
       style="color:#000000;fill:#ffffff;fill-opacity:1;fill-rule:nonzero;stroke:#ffffff;stroke-width:4;stroke-linecap:butt;stroke-linejoin:round;stroke-miterlimit:4;stroke-opacity:0;stroke-dasharray:none;stroke-dashoffset:0;marker:none;visibility:visible;display:inline;overflow:visible;enable-background:accumulate"
       id="path2996"
       sodipodi:cx="352.48877"
       sodipodi:cy="135.20135"
       sodipodi:rx="18.97574"
       sodipodi:ry="18.97574"
       d="m 371.46451,135.20135 a 18.97574,18.97574 0 1 1 -37.95148,0 18.97574,18.97574 0 1 1 37.95148,0 z"
       transform="matrix(1.5039946,0,0,1.5039946,-5.2530609,-84.40484)" />
    <path
       style="color:#000000;fill:#ffffff;fill-opacity:1;fill-rule:nonzero;stroke:#ffffff;stroke-width:5.84771204;stroke-linecap:butt;stroke-linejoin:round;stroke-miterlimit:4;stroke-opacity:0;stroke-dashoffset:0;marker:none;visibility:visible;display:inline;overflow:visible;enable-background:accumulate"
       d="m 514.14752,57.688912 20.45821,0 0,171.356688 -20.45821,0 z"
       id="rect3002"
       inkscape:connector-curvature="0"
       sodipodi:nodetypes="ccccc" />
    <path
       style="color:#000000;fill:#ffffff;fill-opacity:1;fill-rule:nonzero;stroke:#ffffff;stroke-width:4;stroke-linecap:butt;stroke-linejoin:round;stroke-miterlimit:4;stroke-opacity:0;stroke-dasharray:none;stroke-dashoffset:0;marker:none;visibility:visible;display:inline;overflow:visible;enable-background:accumulate"
       d="m 543.43837,123.92482 c -2.34734,1.42592 -11.18888,8.54409 -13.53689,9.97368 l 57.25,60.09375 12.34939,-11.25493 z"
       id="rect3004"
       inkscape:connector-curvature="0"
       sodipodi:nodetypes="ccccc" />
    <path
       transform="matrix(1.5039946,0,0,1.5039946,-5.2530609,21.311753)"
       d="m 371.46451,135.20135 a 18.97574,18.97574 0 1 1 -37.95148,0 18.97574,18.97574 0 1 1 37.95148,0 z"
       sodipodi:ry="18.97574"
       sodipodi:rx="18.97574"
       sodipodi:cy="135.20135"
       sodipodi:cx="352.48877"
       id="path3066"
       style="color:#000000;fill:#ffffff;fill-opacity:1;fill-rule:nonzero;stroke:#ffffff;stroke-width:4;stroke-linecap:butt;stroke-linejoin:round;stroke-miterlimit:4;stroke-opacity:0;stroke-dasharray:none;stroke-dashoffset:0;marker:none;visibility:visible;display:inline;overflow:visible;enable-background:accumulate"
       sodipodi:type="arc" />
    <path
       sodipodi:type="arc"
       style="color:#000000;fill:#ffffff;fill-opacity:1;fill-rule:nonzero;stroke:#ffffff;stroke-width:4;stroke-linecap:butt;stroke-linejoin:round;stroke-miterlimit:4;stroke-opacity:0;stroke-dasharray:none;stroke-dashoffset:0;marker:none;visibility:visible;display:inline;overflow:visible;enable-background:accumulate"
       id="path3068"
       sodipodi:cx="352.48877"
       sodipodi:cy="135.20135"
       sodipodi:rx="18.97574"
       sodipodi:ry="18.97574"
       d="m 371.46451,135.20135 a 18.97574,18.97574 0 1 1 -37.95148,0 18.97574,18.97574 0 1 1 37.95148,0 z"
       transform="matrix(1.5039946,0,0,1.5039946,56.550493,-20.974884)" />
    <path
       style="color:#000000;fill:#1e0536;fill-opacity:1;fill-rule:nonzero;stroke:#ffffff;stroke-width:4;stroke-linecap:butt;stroke-linejoin:round;stroke-miterlimit:4;stroke-opacity:0;stroke-dasharray:none;stroke-dashoffset:0;marker:none;visibility:visible;display:inline;overflow:visible;enable-background:accumulate"
       d="m 228.8527,60.615136 0,32.28125 c 10.9759,3.97595 18.8125,14.495344 18.8125,26.843754 0,4.47243 -1.04119,8.70061 -2.875,12.46875 l 23.96875,25.15625 c 3.68905,-1.74002 7.80699,-2.71875 12.15625,-2.71875 15.76188,0 28.5625,12.76937 28.5625,28.53125 0,15.76188 -12.80062,28.53125 -28.5625,28.53125 -15.76188,0 -28.53125,-12.76937 -28.53125,-28.53125 0,-5.34304 1.47618,-10.31805 4.03125,-14.59375 l -23,-24.15625 c -1.4511,0.84208 -2.9639,1.57712 -4.5625,2.15625 l 0,52.03125 c 10.9759,3.97595 18.8125,14.49534 18.8125,26.84375 0,15.76188 -12.76937,28.5625 -28.53125,28.5625 -15.76188,0 -28.5625,-12.80062 -28.5625,-28.5625 0,-11.96272 7.37349,-22.19436 17.8125,-26.4375 l 0,-52.8125 c -10.44052,-4.24243 -17.8125,-14.50494 -17.8125,-26.46875 0,-11.96272 7.37349,-22.194364 17.8125,-26.437504 l 0,-32.46875 c -51.49784,5.751829 -91.5625,50.138284 -91.5625,104.031254 0,57.79886 46.06012,104.65625 102.90625,104.65625 56.84613,0 102.9375,-46.85739 102.9375,-104.65625 0,-54.67625 -41.23517,-99.559931 -93.8125,-104.250004 z"
       id="path3070"
       inkscape:export-filename="/home/substack/projects/boxcontainer/ui/static/images/fork.png"
       inkscape:export-xdpi="8.5799999"
       inkscape:export-ydpi="8.5799999"
       inkscape:connector-curvature="0" />
  </g>
</svg>
